Coordinates
version=1
nRows=8
nColumns=63
inDegrees=yes

Units are S.I. units (second, meters, Newtons, ...)
If the header above contains a line with 'inDegrees', this indicates whether rotational values are in degrees (yes) or radians (no).

endheader
time	pelvis_tilt	pelvis_list	pelvis_rotation	pelvis_tx	pelvis_ty	pelvis_tz	hip_flexion_r	hip_adduction_r	hip_rotation_r	knee_angle_r	knee_angle_r_beta	ankle_angle_r	subtalar_angle_r	mtp_angle_r	hip_flexion_l	hip_adduction_l	hip_rotation_l	knee_angle_l	knee_angle_l_beta	ankle_angle_l	subtalar_angle_l	mtp_angle_l	L5_S1_Flex_Ext	L5_S1_Lat_Bending	L5_S1_axial_rotation	L4_L5_Flex_Ext	L4_L5_Lat_Bending	L4_L5_axial_rotation	L3_L4_Flex_Ext	L3_L4_Lat_Bending	L3_L4_axial_rotation	L2_L3_Flex_Ext	L2_L3_Lat_Bending	L2_L3_axial_rotation	L1_L2_Flex_Ext	L1_L2_Lat_Bending	L1_L2_axial_rotation	L1_T12_Flex_Ext	L1_T12_Lat_Bending	L1_T12_axial_rotation	Abs_r3	Abs_r2	Abs_r1	Abs_t1	Abs_t2	neck_flexion	neck_bending	neck_rotation	arm_flex_r	arm_add_r	arm_rot_r	elbow_flex_r	pro_sup_r	wrist_flex_r	wrist_dev_r	arm_flex_l	arm_add_l	arm_rot_l	elbow_flex_l	pro_sup_l	wrist_flex_l	wrist_dev_l
0.000000	4.244597	1.889805	90.523424	0.107545	1.083839	-0.029743	-3.553789	2.028524	6.962715	16.805637	0.293314	41.039691	-8.919788	0.000000	-11.806779	-1.230217	14.894458	0.742724	0.012963	35.249561	-13.635899	0.000000	-1.414529	0.444585	0.252455	-2.626923	0.591298	0.268234	-2.323930	1.080965	0.268234	-1.616666	1.080965	0.220898	-1.313532	0.906598	0.205120	-0.808262	0.688663	0.189341	-10.103843	5.029238	1.404080	0.000000	0.000000	20.445935	-9.850817	6.374905	-22.557988	-3.731203	5.455865	13.188702	46.522175	-6.212623	-18.523895	-12.392018	7.578391	182.315321	-0.772734	26.614332	17.672149	-11.259806
0.016949	2.518923	0.253743	91.280296	0.111666	1.085018	-0.030390	-2.064624	0.626754	6.977084	16.545866	0.288780	40.581076	-10.420851	0.000000	-10.146527	0.207609	14.591469	0.705829	0.012319	33.981858	-12.605692	0.000000	-1.168026	0.099598	0.508951	-2.169142	0.132465	0.540761	-1.918950	0.242163	0.540761	-1.334937	0.242163	0.445332	-1.084629	0.203100	0.413523	-0.667410	0.154277	0.381713	-8.343095	1.126674	2.830633	0.000000	0.000000	19.787139	-7.801884	2.167871	-20.188462	-4.699588	28.806078	13.289426	28.801791	-5.127392	-16.906753	-12.585126	4.151128	175.665607	0.626541	22.252366	14.199476	-8.003947
0.033898	1.196457	-1.071435	91.787271	0.114752	1.086009	-0.030952	-0.898135	-0.458336	7.069252	16.237224	0.283393	40.132636	-11.616984	0.000000	-8.798453	1.326361	14.267696	0.666431	0.011631	33.033889	-11.719663	0.000000	-0.964893	-0.163906	0.705654	-1.791904	-0.217995	0.749757	-1.585223	-0.398521	0.749757	-1.102777	-0.398521	0.617447	-0.896000	-0.334237	0.573344	-0.551340	-0.253890	0.529241	-6.892138	-1.854135	3.924636	0.000000	0.000000	19.201082	-6.141721	-0.817351	-18.017154	-5.711283	47.246148	13.213785	15.330913	-4.420292	-15.285716	-12.616986	1.233011	169.286823	1.885949	18.463911	10.951986	-5.317465
0.050847	0.237698	-2.116637	92.072294	0.116910	1.086834	-0.031433	-0.021310	-1.257327	7.228339	15.886471	0.277271	39.694767	-12.535921	0.000000	-7.731486	2.156491	13.924666	0.626149	0.010928	32.369470	-10.966619	0.000000	-0.800878	-0.354119	0.848336	-1.487311	-0.470978	0.901357	-1.315763	-0.861005	0.901357	-0.915324	-0.861005	0.742294	-0.743695	-0.722119	0.689273	-0.457622	-0.548530	0.636252	-5.720592	-4.005865	4.718190	0.000000	0.000000	18.682496	-4.833707	-2.720263	-16.043752	-6.748407	61.165324	13.048251	5.745596	-4.060602	-13.657283	-12.504137	-1.218196	163.193385	3.009653	15.213512	7.929381	-3.156401
0.067797	-0.396856	-2.912775	92.163310	0.118244	1.087515	-0.031837	0.598861	-1.800797	7.443463	15.500364	0.270532	39.267867	-13.205395	0.000000	-6.914562	2.728449	13.563906	0.586602	0.010238	31.952415	-10.335364	0.000000	-0.671727	-0.479234	0.942769	-1.247464	-0.637381	1.001692	-1.103580	-1.165210	1.001692	-0.767717	-1.165210	0.824923	-0.623766	-0.977254	0.766000	-0.383825	-0.742333	0.707077	-4.798080	-5.421191	5.243397	0.000000	0.000000	18.226115	-3.841220	-3.680366	-14.267945	-7.793077	70.952855	12.879298	-0.318108	-4.017603	-12.017954	-12.263118	-3.244726	157.399712	4.001819	12.465714	5.131362	-1.476796
0.084746	-0.746708	-3.490757	92.088266	0.118862	1.088074	-0.032169	0.995391	-2.119325	7.703744	15.085665	0.263295	38.852331	-13.653141	0.000000	-6.316610	3.072685	13.186941	0.549410	0.009589	31.746538	-9.814704	0.000000	-0.573188	-0.547443	0.994724	-1.064467	-0.728100	1.056894	-0.941690	-1.331054	1.056894	-0.655096	-1.331054	0.870384	-0.532262	-1.116347	0.808213	-0.327520	-0.847990	0.746043	-4.094223	-6.192789	5.532357	0.000000	0.000000	17.826670	-3.127639	-3.837163	-12.689422	-8.827408	76.997990	12.793401	-3.224145	-4.260572	-10.364232	-11.910468	-4.888815	151.920221	4.866612	10.185061	2.557630	-0.234691
0.101695	-0.851358	-3.881495	91.875107	0.118869	1.088533	-0.032435	1.201292	-2.243490	7.998303	14.649131	0.255676	38.448557	-13.906890	0.000000	-5.906564	3.219650	12.795299	0.516193	0.009009	31.715655	-9.393443	0.000000	-0.501007	-0.566940	1.009974	-0.930421	-0.754030	1.073097	-0.823105	-1.378457	1.073097	-0.572601	-1.378457	0.883727	-0.465235	-1.156104	0.820604	-0.286276	-0.878190	0.757481	-3.578644	-6.413336	5.617172	0.000000	0.000000	17.478895	-2.656342	-3.330155	-11.307871	-9.833519	79.689976	12.877031	-3.336460	-4.758788	-8.692615	-11.462726	-6.192696	146.769330	5.608195	8.336098	0.207886	0.613874
0.118644	-0.750309	-4.115897	91.551778	0.118373	1.088913	-0.032638	1.249575	-2.203872	8.316257	14.197523	0.247794	38.056941	-13.994377	0.000000	-5.653356	3.199795	12.390506	0.488570	0.008527	31.823581	-9.060386	0.000000	-0.450932	-0.545916	0.994290	-0.837427	-0.726068	1.056433	-0.740837	-1.327339	1.056433	-0.515371	-1.327339	0.870004	-0.418736	-1.113231	0.807861	-0.257663	-0.845623	0.745718	-3.220965	-6.175507	5.529943	0.000000	0.000000	17.177521	-2.390709	-2.298844	-10.122981	-10.793527	79.418064	13.216664	-1.019001	-5.481531	-6.999606	-10.936430	-7.198605	141.961458	6.230735	6.883371	-1.918168	1.112858
